<svg xmlns="http://www.w3.org/2000/svg" xmlns:xlink="http://www.w3.org/1999/xlink" version="1.1" width="50" height="50" enable-background="new 0 0 50 50" xml:space="preserve" style=""><rect id="backgroundrect" width="100%" height="100%" x="0" y="0" fill="none" stroke="none"/>
  
<g class="currentLayer" style=""><title>Layer 1</title><g id="svg_1" class="selected" fill="#ffffff" fill-opacity="1">
    <polygon points="20.118999481201172,21.3127498626709 13.96500015258789,21.3127498626709 13.96500015258789,18.197750091552734 18.395999908447266,18.197750091552734 18.395999908447266,16.491750717163086 13.96500015258789,16.491750717163086 13.96500015258789,13.37874984741211 20.118999481201172,13.37874984741211 20.118999481201172,11.672750473022461 12.14799976348877,11.672750473022461 12.14799976348877,23.018749237060547 20.118999481201172,23.018749237060547 " id="svg_2" fill="#ffffff" fill-opacity="1"/>
    <path d="M19.977,26.24275 c-0.5930000000000001,-0.5830000000000001 -1.343,-0.8230000000000001 -2.601,-0.8230000000000001 h-0.0020000000000000005 h-1.8880000000000001 h-0.0020000000000000005 c-1.258,0 -2.009,0.24000000000000002 -2.6020000000000003,0.8230000000000001 c-0.5800000000000001,0.555 -0.798,1.287 -0.798,2.579 v4.542 c0,1.2890000000000001 0.21800000000000003,2.025 0.798,2.5860000000000003 c0.5930000000000001,0.5760000000000001 1.344,0.8140000000000001 2.6020000000000003,0.8140000000000001 h0.0020000000000000005 h1.8880000000000001 h0.0020000000000000005 c1.258,0 2.008,-0.23800000000000002 2.601,-0.8140000000000001 c0.5800000000000001,-0.561 0.799,-1.2970000000000002 0.799,-2.5860000000000003 v-4.542 C20.775,27.53075 20.557,26.79775 19.977,26.24275 zM18.959,33.02175 c0,1.054 -0.06800000000000002,1.408 -0.3430000000000001,1.701 c-0.27,0.272 -0.5890000000000001,0.3360000000000001 -1.6960000000000002,0.3360000000000001 H15.94 c-1.107,0 -1.427,-0.06300000000000001 -1.6960000000000002,-0.3360000000000001 c-0.275,-0.29300000000000004 -0.3430000000000001,-0.6470000000000001 -0.3430000000000001,-1.701 v-3.854 c0,-1.061 0.06700000000000002,-1.416 0.3430000000000001,-1.7040000000000002 c0.27,-0.268 0.5890000000000001,-0.3390000000000001 1.6960000000000002,-0.3390000000000001 h0.979 c1.107,0 1.427,0.07100000000000001 1.6960000000000002,0.3390000000000001 c0.274,0.28800000000000003 0.3430000000000001,0.6440000000000001 0.3430000000000001,1.7040000000000002 V33.02175 z" id="svg_3" fill="#ffffff" fill-opacity="1"/>
    <path d="M29.525,12.49575 c-0.5920000000000001,-0.5830000000000001 -1.343,-0.8230000000000001 -2.601,-0.8230000000000001 h-0.0020000000000000005 h-4.978 V23.01875 h4.978 h0.0020000000000000005 c1.258,0 2.009,-0.23900000000000002 2.601,-0.8140000000000001 c0.5800000000000001,-0.561 0.799,-1.2970000000000002 0.799,-2.587 v-4.542 C30.324,13.78375 30.105,13.05075 29.525,12.49575 zM28.507,19.27475 c0,1.055 -0.06600000000000002,1.408 -0.3420000000000001,1.702 c-0.27,0.272 -0.5890000000000001,0.3360000000000001 -1.6960000000000002,0.3360000000000001 h-2.707 V13.37875 h2.707 c1.107,0 1.427,0.07 1.6960000000000002,0.3380000000000001 c0.275,0.28800000000000003 0.3420000000000001,0.6440000000000001 0.3420000000000001,1.7040000000000002 V19.27475 z" id="svg_4" fill="#ffffff" fill-opacity="1"/>
    <polygon points="38.89099884033203,13.37874984741211 38.89099884033203,11.672750473022461 31.711000442504883,11.672750473022461 31.711000442504883,13.37874984741211 34.393001556396484,13.37874984741211 34.393001556396484,21.3127498626709 31.711000442504883,21.3127498626709 31.711000442504883,23.018749237060547 38.89099884033203,23.018749237060547 38.89099884033203,21.3127498626709 36.20899963378906,21.3127498626709 36.20899963378906,13.37874984741211 " id="svg_5" fill="#ffffff" fill-opacity="1"/>
    <path d="M48.619,16.77675 l-2.125,-4.604 c-0.126,-0.29600000000000004 -0.41300000000000003,-0.5 -0.7470000000000001,-0.5 c-0.011000000000000003,0 -2.259,0 -2.269,0 c-0.3340000000000001,0 -0.6210000000000001,0.20400000000000001 -0.7480000000000001,0.5 l-2.124,4.604 c-0.11000000000000001,0.24100000000000002 -0.18400000000000002,0.515 -0.18400000000000002,0.799 V23.01875 h1.8170000000000002 v-3.114 h4.745 V23.01875 h1.816 v-5.443 C48.802,17.29075 48.729,17.01775 48.619,16.77675 zM46.985,18.19775 H42.24 v-0.7360000000000001 l1.924,-4.083 h0.8970000000000001 l1.924,4.083 V18.19775 z" id="svg_6" fill="#ffffff" fill-opacity="1"/>
    <polygon points="29.19499969482422,31.101749420166016 24.448999404907227,25.419750213623047 22.632999420166016,25.419750213623047 22.632999420166016,36.76475143432617 24.448999404907227,36.76475143432617 24.448999404907227,27.964750289916992 29.19499969482422,33.64775085449219 29.19499969482422,36.76475143432617 31.011999130249023,36.76475143432617 31.011999130249023,25.419750213623047 29.19499969482422,25.419750213623047 " id="svg_7" fill="#ffffff" fill-opacity="1"/>
    <path d="M46.177,30.28075 c-1.2890000000000001,-0.556 -2.653,-1.068 -2.653,-1.978 c0,-0.6260000000000001 0.48600000000000004,-1.178 1.098,-1.178 h2.494 c0.6140000000000001,0 1.1,0.49700000000000005 1.1,1.1 v0.29800000000000004 H50 v-0.23900000000000002 c0,-1.577 -1.295,-2.863 -2.8850000000000002,-2.863 h-2.422 c-1.586,0 -2.8760000000000003,1.295 -2.8760000000000003,2.883 c0,2.033 2.1470000000000002,2.872 3.823,3.6020000000000003 c1.29,0.556 2.654,1.068 2.654,1.978 c0,0.6260000000000001 -0.48600000000000004,1.177 -1.099,1.177 h-2.494 c-0.6130000000000001,0 -1.1,-0.49600000000000005 -1.1,-1.099 v-0.29800000000000004 h-1.7850000000000001 v0.23900000000000002 c0,1.577 1.296,2.863 2.8850000000000002,2.863 h2.422 c1.586,0 2.8760000000000003,-1.295 2.8760000000000003,-2.883 C50,31.848750000000003 47.853,31.00975 46.177,30.28075 z" id="svg_8" fill="#ffffff" fill-opacity="1"/>
    <polygon points="36.43000030517578,31.031749725341797 41.26599884033203,25.419750213623047 38.8849983215332,25.419750213623047 34.96900177001953,30.239749908447266 34.96900177001953,25.419750213623047 33.152000427246094,25.419750213623047 33.152000427246094,36.76475143432617 34.96900177001953,36.76475143432617 34.96900177001953,31.945751190185547 39.05500030517578,36.76475143432617 41.48699951171875,36.76475143432617 " id="svg_9" fill="#ffffff" fill-opacity="1"/>
    <polyline points="8.378999710083008,14.544750213623047 5.834000110626221,18.197750091552734 4.361000061035156,18.197750091552734 1.815999984741211,14.544750213623047 1.815999984741211,23.018749237060547 0,23.018749237060547 0,11.672750473022461 1.815999984741211,11.672750473022461 5.098999977111816,16.382749557495117 8.378999710083008,11.672750473022461 10.196000099182129,11.672750473022461 10.196000099182129,23.018749237060547 8.378999710083008,23.018749237060547 8.378999710083008,14.544750213623047 " id="svg_10" fill="#ffffff" fill-opacity="1"/>
    <polyline points="8.378999710083008,28.291749954223633 5.834000110626221,31.945751190185547 4.361000061035156,31.945751190185547 1.815999984741211,28.291749954223633 1.815999984741211,36.76475143432617 0,36.76475143432617 0,25.419750213623047 1.815999984741211,25.419750213623047 5.098999977111816,30.129749298095703 8.378999710083008,25.419750213623047 10.196000099182129,25.419750213623047 10.196000099182129,36.76475143432617 8.378999710083008,36.76475143432617 8.378999710083008,28.291749954223633 " id="svg_11" fill="#ffffff" fill-opacity="1"/>
  </g></g></svg>